PathFileType	3	(X/Y/Z)	D:\Vicon Database\Healthy Subjects\S0040\Jan. 30, 2020\Force Plate Walk 4.trc
DataRate	CameraRate	NumFrames	NumMarkers	Units	OrigDataRate	OrigDataStartFrame	OrigNumFrames
100.0	100.0	5	53	mm	100.0	282	329	
Frame#	Time	right_foot_cluster2			right_foot_cluster3			sternum_cluster1			sternum_cluster2			sternum_cluster3			left_asis			right_asis			left_psis			right_psis			sacrum_cluster1			sacrum_cluster2			sacrum_cluster3			left_lat_femoral_epicondyle			left_anterior_thigh15			left_anterior_thigh25			left_anterior_thigh50			left_lateral_thigh25			left_lateral_thigh50			left_thigh_cluster1			left_thigh_cluster2			left_thigh_cluster3			left_fibular_head			left_tibial_tuberosity			left_anterior_shank30			left_lateral_malleolus			left_shank_cluster1			left_shank_cluster2			left_shank_cluster3			left_heel			left_metatarsal2			left_foot_cluster1			left_foot_cluster2			left_foot_cluster3			right_lat_femoral_epicondyle			right_anterior_thigh15			right_anterior_thigh25			right_anterior_thigh50			right_lateral_thigh25			right_lateral_thigh50			right_thigh_cluster1			right_thigh_cluster2			right_thigh_cluster3			right_fibular_head			right_tibial_tuberosity			right_lateral_distal_shank			right_anterior_shank30			right_lateral_malleolus			right_shank_cluster1			right_shank_cluster2			right_shank_cluster3			right_heel			right_metatarsal2			right_foot_cluster1			
		X1	Y1	Z1	X2	Y2	Z2	X3	Y3	Z3	X4	Y4	Z4	X5	Y5	Z5	X6	Y6	Z6	X7	Y7	Z7	X8	Y8	Z8	X9	Y9	Z9	X10	Y10	Z10	X11	Y11	Z11	X12	Y12	Z12	X13	Y13	Z13	X14	Y14	Z14	X15	Y15	Z15	X16	Y16	Z16	X17	Y17	Z17	X18	Y18	Z18	X19	Y19	Z19	X20	Y20	Z20	X21	Y21	Z21	X22	Y22	Z22	X23	Y23	Z23	X24	Y24	Z24	X25	Y25	Z25	X26	Y26	Z26	X27	Y27	Z27	X28	Y28	Z28	X29	Y29	Z29	X30	Y30	Z30	X31	Y31	Z31	X32	Y32	Z32	X33	Y33	Z33	X34	Y34	Z34	X35	Y35	Z35	X36	Y36	Z36	X37	Y37	Z37	X38	Y38	Z38	X39	Y39	Z39	X40	Y40	Z40	X41	Y41	Z41	X42	Y42	Z42	X43	Y43	Z43	X44	Y44	Z44	X45	Y45	Z45	X46	Y46	Z46	X47	Y47	Z47	X48	Y48	Z48	X49	Y49	Z49	X50	Y50	Z50	X51	Y51	Z51	X52	Y52	Z52	X53	Y53	Z53	
282	2.81	3737.8345	104.90117	-187.52719	3736.5933	109.35219	-225.79422	3630.188	1451.229	-133.13017	3621.6233	1422.3416	-124.31785	3620.4016	1425.5807	-162.30569	3683.022	1075.7042	-18.163645	3664.8301	1081.8593	-265.05438																3609.7708	567.44592	8.8218803	3529.021	663.91425	-28.573833	3547.8223	753.35107	-17.55748	3605.8438	880.19385	-11.250911	3656.6316	707.31635	29.9188	3703.6587	849.75476	51.46806	3689.8914	804.65399	58.666561	3683.5642	774.9223	55.517899	3651.6543	795.26593	61.413155	3619.1646	498.4371	17.874279	3561.4644	468.71783	-29.665089	3708.2612	257.79297	-45.440838	3810.1235	180.48651	-21.879345	3588.114	415.3045	-57.678711	3599.1064	390.01111	-48.627842	3606.9028	394.57785	-86.230698	3887.4253	180.86949	-70.149712	3692.9048	85.098122	-41.300697	3724.2314	154.78893	-39.197357	3712.6199	128.4971	-27.950453	3701.2161	131.58942	-63.937305	3756.9797	536.89691	-274.66913	3670.104	619.31097	-213.33412	3648.9597	697.41852	-213.89783	3636.6104	826.70764	-227.15912	3741.5154	696.43994	-301.15591	3728.8752	843.16687	-329.08499	3742.3745	789.81903	-335.87244	3722.9602	767.19427	-327.42288	3770.4478	766.14905	-330.0704	3774.2366	469.63257	-277.37369	3725.208	455.72693	-227.96352	3825.561	204.92876	-259.23618	3784.8455	212.96085	-209.89719	3847.5764	103.18288	-243.19095	3750.0906	393.71021	-173.2888	3760.3257	367.33392	-165.97264	3733.926	362.07178	-191.64555	3924.0151	68.814781	-211.86172	3704.5032	71.732239	-198.94914	3762.2505	118.7878	-197.73175
283	2.82	3737.4788	104.73424	-187.46422	3735.9023	109.26015	-225.60028	3619.5955	1451.4901	-132.71835	3611.0869	1422.0471	-123.99294	3609.8386	1425.3365	-161.80898	3673.051	1076.1748	-18.336264	3654.3223	1082.0203	-265.15485																3593.4434	570.27393	9.2498665	3514.46	668.28394	-29.232635	3534.645	757.28174	-18.066261	3594.4763	882.98444	-11.468482	3641.4275	710.05518	31.113909	3691.1592	851.3974	52.879971	3676.2756	806.98859	59.989174	3669.6448	777.60864	57.125889	3637.9302	798.03741	62.325207	3600.7046	499.97867	17.772575	3542.0774	472.43814	-29.660812	3676.9756	254.2733	-45.201843	3774.5522	171.69429	-21.365246	3565.2397	418.14706	-57.521675	3575.064	392.40005	-48.307594	3583.0334	396.52246	-85.892319	3852.0576	167.58176	-69.979424	3651.3386	83.993713	-40.319695	3687.2437	151.27667	-38.679459	3673.8579	125.87086	-26.847975	3662.7742	129.10803	-63.142128	3754.3301	537.07629	-274.44553	3665.804	618.2677	-213.01346	3643.1975	695.78296	-213.48206	3628.6829	825.32135	-226.90106	3735.8235	696.06836	-301.06195	3720.7224	842.64117	-328.70868	3735.239	789.54059	-335.29486	3716.6458	767.1767	-327.73145	3763.5764	766.47278	-329.90344	3772.4651	470.08859	-277.27444	3722.8062	455.83026	-227.80386	3824.9407	205.49542	-259.00525	3782.2839	213.43509	-209.64258	3846.7698	103.92675	-242.82996	3749.0232	394.52454	-172.64307	3758.3767	367.34637	-166.05394	3732.4902	362.10651	-191.61554	3923.7734	69.260727	-211.78702	3704.2466	71.487625	-199.01144	3761.7385	118.74448	-197.24043
284	2.83	3737.2859	104.5537	-187.87508	3735.948	109.24157	-225.51665	3608.9236	1450.7887	-132.51094	3600.4482	1421.9718	-123.76163	3598.9985	1425.3566	-161.73608	3663.0347	1076.2427	-18.345003	3644.1641	1080.6882	-265.28995																3577.667	572.67682	10.111122	3500.4592	672.11353	-29.779633	3521.7229	760.67596	-18.967928	3583.0613	885.38458	-12.032058	3626.3816	712.62939	32.372726	3678.6624	853.06494	53.743099	3662.1836	809.14923	61.69825	3655.8843	779.56573	58.453014	3623.9185	800.73853	63.763046	3582.7129	501.36865	17.97871	3523.3796	476.36887	-29.95853	3645.5132	250.94273	-44.468105	3738.2544	162.82042	-20.803793	3543.2937	420.7106	-57.442776	3551.3452	394.76846	-48.200153	3559.793	398.36469	-85.814774	3815.4089	153.93311	-69.648811	3610.2141	82.431946	-39.234684	3649.8616	147.54747	-37.894032	3635.0688	123.19337	-25.862488	3623.9949	127.45848	-62.593758	3751.9075	537.17023	-273.92365	3662.5417	616.75488	-212.67549	3637.1594	694.53845	-213.20653	3620.7437	823.48828	-226.75958	3730.3167	696.03943	-300.84012	3712.8149	842.03827	-328.57562	3726.4175	790.23877	-334.67316	3717.6423	763.43304	-329.2449	3755.9424	765.39667	-328.81476	3770.5354	470.38269	-277.02802	3720.9697	455.71378	-227.60637	3824.2209	205.73904	-258.6647	3781.1792	213.67874	-209.69812	3845.7178	104.16615	-242.17372	3747.1382	394.5116	-172.49828	3756.6538	367.72635	-165.78819	3730.6501	362.19882	-191.84082	3923.5857	69.775032	-211.71849	3703.9963	71.242279	-198.99774	3761.1135	118.56331	-197.43515
285	2.84	3736.6836	104.32584	-188.05191	3735.5999	109.04648	-225.45523	3598.2749	1450.631	-132.12012	3589.7676	1421.5939	-123.31514	3588.2424	1424.7755	-161.23969	3652.8843	1076.1691	-18.458221	3633.9817	1079.3497	-265.30588																3562.2715	573.90656	11.040938	3487.0764	675.16431	-30.298351	3509.0491	763.58716	-19.758615	3571.658	887.06952	-12.473984	3611.7944	714.90106	33.246609	3666.3755	854.36829	54.574493	3649.4883	810.11743	62.194355	3641.9033	780.71405	59.138672	3610.0779	802.57819	64.673477	3564.7229	501.4686	18.152905	3505.2744	480.13126	-30.125957	3614.1255	247.66408	-44.099411	3701.427	154.3981	-20.197491	3522.2068	422.77005	-57.229233	3527.5815	396.92712	-47.903202	3537.084	399.87869	-85.584549	3777.1458	139.67233	-68.910461	3568.8857	81.668549	-37.883301	3612.1531	144.44647	-36.9118	3595.7935	121.35992	-24.776049	3585.1094	126.12299	-61.565273	3748.9849	537.11151	-273.9794	3661.5471	614.86298	-212.94139	3631.5745	692.97003	-212.92836	3612.4048	822.11835	-226.48468	3724.4778	695.47699	-300.63983	3704.6973	841.2193	-328.17953	3718.3521	789.54651	-334.79446	3710.4272	762.56219	-330.27649	3749.5654	766.32214	-329.53409	3769.0845	471.19095	-277.50665	3719.2092	455.80667	-227.56773	3823.9207	206.41884	-258.25143	3780.2549	213.88058	-209.6087	3846.3711	104.16144	-242.58646	3744.9941	394.23273	-172.54933	3754.8855	367.75977	-165.61382	3729.0217	362.20801	-191.87793	3923.1936	69.801765	-211.66566	3703.8098	71.071793	-198.91493	3760.1262	118.81184	-197.16982
286	2.85	3736.0015	104.36919	-188.14508	3735.25	109.12116	-225.35251	3587.5874	1450.0259	-131.47478	3578.958	1420.8925	-123.07172	3577.2341	1423.8953	-160.66377	3642.4956	1075.8293	-18.308916	3623.4985	1078.7664	-265.03021																3547.5645	575.08472	11.28632	3474.2761	677.61407	-30.895615	3496.7219	765.81219	-20.714647	3560.2656	888.47876	-12.84369	3597.8291	716.47015	33.889027	3654.8701	854.83466	54.550526	3635.8772	811.47931	63.698845	3628.7004	781.39606	59.761646	3597.3403	803.89539	64.771812	3547.4973	502.01035	18.589367	3488.0642	483.30283	-30.21454	3582.3137	244.8791	-43.550495	3663.8928	146.22781	-19.220284	3501.5588	425.60846	-56.93594	3504.0212	399.38931	-47.581451	3515.2908	401.70004	-85.576332	3738.6707	126.88812	-67.971535	3527.0073	82.100891	-36.871056	3574.2656	142.15347	-36.020725	3556.5645	120.36995	-23.759239	3545.8979	125.86675	-60.346642	3746.4988	537.0448	-273.33615	3656.6726	613.82196	-212.39948	3625.2205	691.5116	-212.4173	3604.4795	819.98944	-226.12836	3718.7341	694.92267	-299.89603	3696.6589	840.65472	-328.09552	3711.3354	789.42566	-334.44037	3703.5874	762.26208	-328.62094	3742.6738	766.40741	-329.39108	3767.0845	471.26062	-276.87466	3717.4312	455.86295	-227.53931	3823.167	206.91594	-257.94992	3779.323	214.24164	-209.39622	3845.5483	104.89465	-242.19337	3742.9539	393.98993	-172.3615	3753.4858	367.74619	-164.8551	3727.6687	362.18002	-191.40228	3923.0464	70.378685	-211.52438	3703.3025	70.777733	-198.83272	3760.4639	118.47654	-197.16528
